<svg id="图层_1" data-name="图层 1" xmlns="http://www.w3.org/2000/svg" viewBox="0 0 38.87 35.21"><defs><style>.cls-1{fill:#f5a518;}</style></defs><title>banbiec</title><path class="cls-1" d="M162.11,259.92v-8.31h26.83v8.31Z" transform="translate(-150.06 -251.22)"/><path class="cls-1" d="M162.11,273v-8.31h26.83V273Z" transform="translate(-150.06 -251.22)"/><path class="cls-1" d="M162.11,286.12v-8.31h26.83v8.31Z" transform="translate(-150.06 -251.22)"/><path class="cls-1" d="M150.61,254v-1.2a7.72,7.72,0,0,0,1.17-.11,1.64,1.64,0,0,0,.87-.47,1.56,1.56,0,0,0,.35-.64,1.51,1.51,0,0,0,.07-.36h1.48v9h-1.81V254Z" transform="translate(-150.06 -251.22)"/><path class="cls-1" d="M150.54,271.71a5,5,0,0,1,1.79-1.9,13.12,13.12,0,0,0,1.58-1.25,1.85,1.85,0,0,0,.55-1.29,1.43,1.43,0,0,0-.32-.95,1.29,1.29,0,0,0-2,.22,3,3,0,0,0-.2,1.1h-1.72a4.33,4.33,0,0,1,.42-1.85,2.59,2.59,0,0,1,2.51-1.35,3.19,3.19,0,0,1,2.27.79,2.73,2.73,0,0,1,.84,2.09,2.83,2.83,0,0,1-.6,1.77,5.94,5.94,0,0,1-1.29,1.15l-.71.5q-.66.47-.91.68a2,2,0,0,0-.41.49h3.92v1.56h-6.16A4.23,4.23,0,0,1,150.54,271.71Z" transform="translate(-150.06 -251.22)"/><path class="cls-1" d="M151.8,283.45a2,2,0,0,0,.17.89,1.19,1.19,0,0,0,1.17.65,1.29,1.29,0,0,0,.91-.36,1.33,1.33,0,0,0,.39-1,1.16,1.16,0,0,0-.72-1.18,3.64,3.64,0,0,0-1.29-.17V281a3.33,3.33,0,0,0,1.2-.17,1,1,0,0,0,.59-1.05,1.18,1.18,0,0,0-.3-.84,1.09,1.09,0,0,0-.84-.32,1.07,1.07,0,0,0-.92.4,1.68,1.68,0,0,0-.28,1.06h-1.65a4.42,4.42,0,0,1,.23-1.27,2.86,2.86,0,0,1,.68-1,2.36,2.36,0,0,1,.82-.48,3.57,3.57,0,0,1,1.17-.17,3.11,3.11,0,0,1,2.08.67,2.22,2.22,0,0,1,.79,1.79,2,2,0,0,1-.47,1.34,1.61,1.61,0,0,1-.62.47,1.27,1.27,0,0,1,.69.41,2.22,2.22,0,0,1,.68,1.71,2.89,2.89,0,0,1-.79,2,3,3,0,0,1-2.34.86,2.83,2.83,0,0,1-2.65-1.25,3.7,3.7,0,0,1-.43-1.74Z" transform="translate(-150.06 -251.22)"/></svg>