<svg xmlns="http://www.w3.org/2000/svg" viewBox="0 0 79 54.19"><defs><style>.cls-1{fill:#052e6c;}.cls-2{fill:#8ba1af;}</style></defs><title>资源 7</title><g id="图层_2" data-name="图层 2"><g id="图层_1-2" data-name="图层 1"><path class="cls-1" d="M67.64,0H11.37A11.38,11.38,0,0,0,0,11.37V42.83A11.37,11.37,0,0,0,11.37,54.19H67.63A11.37,11.37,0,0,0,79,42.83V11.37A11.38,11.38,0,0,0,67.64,0Zm6.85,42.83a6.85,6.85,0,0,1-6.85,6.85H35.74V39.92a6.29,6.29,0,0,0-6.29-6.3H16.92a6.3,6.3,0,0,0-6.3,6.3v9.69a6.85,6.85,0,0,1-6.11-6.78V11.37a6.86,6.86,0,0,1,6.86-6.86H67.64a6.86,6.86,0,0,1,6.85,6.86V42.83Z"/><circle class="cls-1" cx="23.32" cy="19.65" r="10.01"/><rect class="cls-2" x="51.96" y="13.93" width="16.19" height="5.31"/><rect class="cls-2" x="40.88" y="24.36" width="27.27" height="5.31"/><rect class="cls-2" x="40.88" y="34.64" width="27.27" height="5.31"/><rect class="cls-2" x="40.88" y="13.92" width="5.71" height="5.31"/></g></g></svg>