<svg id="图层_1" data-name="图层 1" xmlns="http://www.w3.org/2000/svg" viewBox="0 0 27.24 38.35"><defs><style>.cls-1,.cls-2{fill:#f5a518;stroke:#f5a518;stroke-miterlimit:10;stroke-width:0.5px;}.cls-1{fill-rule:evenodd;}</style></defs><title>gongluec</title><path class="cls-1" d="M306,274.4H290.46v31.36h20.63v-26.3ZM292.21,281h4.62s.09.25.09.56,0,.56-.09.56h-4.62s-.09-.25-.09-.56S292.16,281,292.21,281ZM309,302.34H292.45c-.18,0-.32-.25-.32-.56s.14-.56.32-.56H309c.18,0,.32.25.32.56S309.18,302.34,309,302.34Zm0-2.24H292.45c-.18,0-.32-.25-.32-.56s.14-.56.32-.56H309c.18,0,.32.25.32.56S309.18,300.1,309,300.1Zm-16.88-3c0-.31.08-.56.17-.56h8.91c.1,0,.17.25.17.56s-.08.56-.17.56H292.3C292.2,297.71,292.12,297.46,292.12,297.15ZM309,295.41H292.45c-.18,0-.32-.25-.32-.56s.14-.56.32-.56H309c.18,0,.32.25.32.56S309.18,295.41,309,295.41Zm0-2.24H292.45c-.18,0-.32-.25-.32-.56s.14-.56.32-.56H309c.18,0,.32.25.32.56S309.18,293.17,309,293.17Zm0-2.24H292.45c-.18,0-.32-.25-.32-.56s.14-.56.32-.56H309c.18,0,.32.25.32.56S309.18,290.93,309,290.93Zm0-2H292.45c-.18,0-.32-.25-.32-.56s.14-.56.32-.56H309c.18,0,.32.25.32.56S309.18,288.92,309,288.92Zm0-2.24H292.45c-.18,0-.32-.25-.32-.56s.14-.56.32-.56H309c.18,0,.32.25.32.56S309.18,286.68,309,286.68Zm0-2.24H292.45c-.18,0-.32-.25-.32-.56s.14-.56.32-.56H309c.18,0,.32.25.32.56S309.18,284.44,309,284.44Zm-1.13-4.12h-2.45V275.4l2.45,2.46,2.45,2.45Z" transform="translate(-290.21 -267.65)"/><path class="cls-2" d="M317.2,273l-5.05-5.05H296.57v5.17h11.28l5.06,5.06v21.13h4.29Zm-3.22.86h-2.45v-4.91l2.46,2.45,2.45,2.45Z" transform="translate(-290.21 -267.65)"/></svg>