<svg id="图层_1" data-name="图层 1" xmlns="http://www.w3.org/2000/svg" viewBox="0 0 27.49 38.6"><defs><style>.cls-1,.cls-2{fill:none;stroke:#595757;stroke-miterlimit:10;stroke-width:0.75px;}.cls-1{fill-rule:evenodd;}</style></defs><title>gonglue</title><path class="cls-1" d="M219.71,274.4H204.13v31.36h20.63v-26.3ZM205.88,281h4.62s.09.25.09.56,0,.56-.09.56h-4.62s-.09-.25-.09-.56S205.83,281,205.88,281Zm16.79,21.35H206.11c-.18,0-.32-.25-.32-.56s.14-.56.32-.56h16.56c.18,0,.32.25.32.56S222.85,302.34,222.67,302.34Zm0-2.24H206.11c-.18,0-.32-.25-.32-.56s.14-.56.32-.56h16.56c.18,0,.32.25.32.56S222.85,300.1,222.67,300.1Zm-16.88-3c0-.31.08-.56.17-.56h8.91c.1,0,.17.25.17.56s-.08.56-.17.56H206C205.87,297.71,205.79,297.46,205.79,297.15Zm16.88-1.74H206.11c-.18,0-.32-.25-.32-.56s.14-.56.32-.56h16.56c.18,0,.32.25.32.56S222.85,295.41,222.67,295.41Zm0-2.24H206.11c-.18,0-.32-.25-.32-.56s.14-.56.32-.56h16.56c.18,0,.32.25.32.56S222.85,293.17,222.67,293.17Zm0-2.24H206.11c-.18,0-.32-.25-.32-.56s.14-.56.32-.56h16.56c.18,0,.32.25.32.56S222.85,290.93,222.67,290.93Zm0-2H206.11c-.18,0-.32-.25-.32-.56s.14-.56.32-.56h16.56c.18,0,.32.25.32.56S222.85,288.92,222.67,288.92Zm0-2.24H206.11c-.18,0-.32-.25-.32-.56s.14-.56.32-.56h16.56c.18,0,.32.25.32.56S222.85,286.68,222.67,286.68Zm0-2.24H206.11c-.18,0-.32-.25-.32-.56s.14-.56.32-.56h16.56c.18,0,.32.25.32.56S222.85,284.44,222.67,284.44Zm-1.13-4.12h-2.45V275.4l2.45,2.46,2.45,2.45Z" transform="translate(-203.76 -267.53)"/><path class="cls-2" d="M230.87,273l-5.05-5.05H210.24v5.17h11.28l5.06,5.06v21.13h4.29Zm-3.22.86h-2.45v-4.91l2.46,2.45,2.45,2.45Z" transform="translate(-203.76 -267.53)"/><line class="cls-2" x1="15.32" y1="7.16" x2="20.71" y2="12.55"/><line class="cls-2" x1="21.35" y1="0.63" x2="26.82" y2="6.1"/></svg>