<svg xmlns="http://www.w3.org/2000/svg" viewBox="0 0 32.01 32"><defs><style>.\31 c1ae79e-94d9-443d-8465-5aa266ab2959{fill:#fa0;}</style></defs><title>资源 1</title><g id="4f769e1e-f97c-4a42-9b15-38976edb1335" data-name="图层 2"><g id="ea59501b-18b7-45a5-bf40-ec32fd1903b7" data-name="图层 1"><path class="1c1ae79e-94d9-443d-8465-5aa266ab2959" d="M32,21.33a.93.93,0,0,0-1-.94,3.31,3.31,0,0,0-1.4.45,7,7,0,0,0-2.48-3,11.64,11.64,0,0,0-3.78-.54,11.57,11.57,0,0,0-3.77.54,7,7,0,0,0-2.48,3,3.34,3.34,0,0,0-1.41-.45,1,1,0,0,0-.64.19.92.92,0,0,0-.36.75,2.64,2.64,0,0,0,.9,1.84.5.5,0,0,0,.25.13,6.75,6.75,0,0,0-.22.73c2,.1,4.4.51,4.4,2a.67.67,0,1,1-1.33,0,7.79,7.79,0,0,0-3.3-.64c0,.22,0,.45,0,.64A7.59,7.59,0,0,0,16,29.56v1.11A1.33,1.33,0,0,0,17.34,32h1.33A1.32,1.32,0,0,0,20,30.67v-.46a13.84,13.84,0,0,0,3.34.46,13.83,13.83,0,0,0,3.33-.46v.46A1.32,1.32,0,0,0,28,32h1.34a1.32,1.32,0,0,0,1.33-1.33V29.56A7.6,7.6,0,0,0,31.34,26c0-.19,0-.42,0-.64-1.61.08-3.1.39-3.31.71a.64.64,0,0,1-.66.63.69.69,0,0,1-.66-.7c0-1.45,2.45-1.87,4.4-2a6.75,6.75,0,0,0-.22-.73.5.5,0,0,0,.25-.13A2.64,2.64,0,0,0,32,21.33Zm-7.33,5.34H22a.67.67,0,0,1,0-1.34h2.67a.67.67,0,0,1,0,1.34Zm3.53-4.4h0l-.83.09h-.1l-.86.09-.21,0-.62.05-.27,0-.52.05h-.26l-.46,0h-.21l-.53,0-.53,0h-.21l-.46,0h-.25l-.52-.05-.27,0-.62-.05-.22,0-.85-.09h-.11L18,22.22v0a6.36,6.36,0,0,1,2.18-3.13,12,12,0,0,1,3.18-.39,11.92,11.92,0,0,1,3.18.39,6.24,6.24,0,0,1,2.18,3.13l0,0ZM32,3.33A3.33,3.33,0,0,0,28.67,0H3.33A3.33,3.33,0,0,0,0,3.33V4H32Zm-32,2V20.67H0A3.34,3.34,0,0,0,3.33,24h9.9a.67.67,0,0,0,.48-1.12,3.47,3.47,0,0,1-.38-1.55h-10a.67.67,0,0,1-.66-.66,3.62,3.62,0,0,1,2.75-3.53l1.79-.45A6.64,6.64,0,0,1,5.31,16,.65.65,0,0,1,5,15.48a.62.62,0,0,1,.26-.56s.89-.81.89-3.53c0-3.53,2.65-4.72,3.86-4.72a2.2,2.2,0,0,1,1.72.58h0c1.4,0,2.12,1.39,2.12,4.14s.9,3.53.91,3.54a.69.69,0,0,1,.23.57.66.66,0,0,1-.31.52,6.8,6.8,0,0,1-1.9.67l1.79.45a3.6,3.6,0,0,1,1.55.83.5.5,0,0,1,.16.22l.32.72s.09-.05.12-.09A6.75,6.75,0,0,1,19,16.67,12.76,12.76,0,0,1,23.34,16a12.74,12.74,0,0,1,4.37.67,6.84,6.84,0,0,1,2.23,2.15.67.67,0,0,0,.64.27,2.47,2.47,0,0,1,.69,0,.71.71,0,0,0,.52-.16.68.68,0,0,0,.22-.5V5.33ZM19.33,8h4a.67.67,0,1,1,0,1.33h-4a.67.67,0,0,1,0-1.33Zm9.34,5.33H19.33a.67.67,0,0,1,0-1.33h9.34a.67.67,0,0,1,0,1.33Zm0-4H26A.67.67,0,1,1,26,8h2.67a.67.67,0,0,1,0,1.33Z"/></g></g></svg>