<svg xmlns="http://www.w3.org/2000/svg" viewBox="0 0 42.61 32"><defs><style>.\37 4f9a02c-db7e-428c-ba57-a6891329e576{fill:#fa0;}</style></defs><title>资源 1</title><g id="e7e43ee7-fe60-475e-90ea-7463dd74ddf6" data-name="图层 2"><g id="f7020f0b-6b93-470f-b7b6-685149a708b7" data-name="图层 1"><path class="74f9a02c-db7e-428c-ba57-a6891329e576" d="M42.57,13.46l-.28-.93a2.23,2.23,0,0,0-2.63-1.69l-2.26.69-.84-5.32a2.91,2.91,0,0,0-.33-1,.66.66,0,0,0-.06-.12l0-.06A1.59,1.59,0,0,0,36,4.86C34.18,2,28.28,0,21.3,0S8.43,2,6.61,4.87a2.08,2.08,0,0,0-.15.24l0,.06,0,.06a3.1,3.1,0,0,0-.34,1l-.84,5.32L3,10.84A2.23,2.23,0,0,0,.32,12.53L0,13.46a.66.66,0,0,0,.36.86l2.66,1.09a4.93,4.93,0,0,0-.8,2.71v6.51a2.6,2.6,0,0,0,2.26,2.58v3A1.75,1.75,0,0,0,6.27,32H8.08a1.75,1.75,0,0,0,1.75-1.75v-3h23v3A1.75,1.75,0,0,0,34.53,32h1.81a1.75,1.75,0,0,0,1.75-1.75v-3a2.6,2.6,0,0,0,2.26-2.58V18.12a4.93,4.93,0,0,0-.8-2.71l2.66-1.09A.66.66,0,0,0,42.57,13.46ZM9.64,20.58a2.15,2.15,0,0,1-.72,1.15,3.71,3.71,0,0,1-2.38.81,4,4,0,0,1-1.65-.35,2.33,2.33,0,0,1-1.51-2,2.23,2.23,0,0,1,1.3-1.9A3.46,3.46,0,0,1,5.36,18a4.21,4.21,0,0,1,.74-.15l.44,0a3.42,3.42,0,0,1,2.81,1.28,2,2,0,0,1,.31.73,1.87,1.87,0,0,1,0,.34A1.67,1.67,0,0,1,9.64,20.58ZM7.25,13.13a5.44,5.44,0,0,0-.82.07L7.49,6.43a2.11,2.11,0,0,1,.2-.53l0-.09.07-.11,0,0C9.11,3.6,14,1.52,21,1.47v.89H18.77a.58.58,0,0,0-.58.58V4.13a.58.58,0,0,0,.58.58h5.07a.58.58,0,0,0,.58-.58V2.94a.58.58,0,0,0-.58-.58H21.6V1.47c7,.05,11.9,2.13,13.17,4.18l0,0,.07.11.06.11a2,2,0,0,1,.19.51l1.06,6.77a5.44,5.44,0,0,0-.82-.07H33.63l-1.9-3.58a.9.9,0,0,0-.9-.46l-.16,0H26.94l-.16,0a.89.89,0,0,0-.91.46L24,13.13ZM28.8,11.92a2.36,2.36,0,0,0-2.05,1.21H26l.31-.58a3,3,0,0,1,5-.05l.34.63h-.76A2.35,2.35,0,0,0,28.8,11.92Zm-.9,9.8H14.71v-.49H27.9Zm0-2.6v.07H14.71v-.48H27.9Zm9.82,3.07a4,4,0,0,1-1.65.35,3.71,3.71,0,0,1-2.38-.81A2.15,2.15,0,0,1,33,20.58a1.67,1.67,0,0,1,0-.39,1.87,1.87,0,0,1,0-.34,2,2,0,0,1,.31-.73,3.42,3.42,0,0,1,2.81-1.28l.44,0a4.21,4.21,0,0,1,.74.15,3.46,3.46,0,0,1,.68.28,2.23,2.23,0,0,1,1.3,1.9A2.33,2.33,0,0,1,37.72,22.19Zm-11.43-16A2.52,2.52,0,1,1,28.8,8.69,2.51,2.51,0,0,1,26.29,6.17Z"/></g></g></svg>