<svg xmlns="http://www.w3.org/2000/svg" viewBox="0 0 40.81 33"><defs><style>.c474073c-46fd-444e-a94a-cafadc03f039{fill:#fa0;}</style></defs><title>资源 1</title><g id="95f4405b-e3ec-41cc-9997-6d67359a97e7" data-name="图层 2"><g id="767a72bb-9949-49d8-b515-058e559b976c" data-name="图层 1"><path class="c474073c-46fd-444e-a94a-cafadc03f039" d="M32.93,20a12.14,12.14,0,0,0-2.81-1.69c-.84-.38-2.07-.61-2.67-1.4-1.13-1.52,1.41-3.8,1.94-5.22.77-2.05,1.14-4.51,0-6.5a5.68,5.68,0,0,0-5-2.84c1.65,3.24,1.68,7.22,0,11.58a13.88,13.88,0,0,1-1.64,2.84l-.5.75c.38.14.75.27,1.09.43A20.87,20.87,0,0,1,28,20.67c1,.79,3.29,2.69,3.95,5.54a4,4,0,0,0,2.82-2.13A3,3,0,0,0,35,23C35,21.75,33.86,20.7,32.93,20Z"/><path class="c474073c-46fd-444e-a94a-cafadc03f039" d="M28.33,27.75c0-1.69-1.48-3.09-2.72-4.09a17.24,17.24,0,0,0-3.75-2.26c-1.13-.5-2.78-.81-3.58-1.88-1.51-2,1.89-5.08,2.6-7,1-2.74,1.53-6,.05-8.71A7.75,7.75,0,0,0,8.66,2.37,8.15,8.15,0,0,0,6.82,9.53,15.16,15.16,0,0,0,8.27,14c.63,1.21,2.36,2.64,2.36,4,0,2.6-3.61,3.05-5.39,4C3.31,23.16.6,25,.13,27.32-.62,29.59,2,31.23,3.74,31.8c4.41,1.45,9.46,1.28,14.05,1.05,2.94-.15,9-.21,10.29-3.68A3.83,3.83,0,0,0,28.33,27.75Z"/><path class="c474073c-46fd-444e-a94a-cafadc03f039" d="M39.29,15.87a10,10,0,0,0-2.1-1.26c-.64-.29-1.57-.47-2-1-.85-1.14,1.06-2.85,1.45-3.92a5.83,5.83,0,0,0,0-4.87,4.3,4.3,0,0,0-4.3-2.11c.13.21.28.41.41.63C34.28,6,34.35,9.36,33,13a8.75,8.75,0,0,1-1,1.88A17.18,17.18,0,0,1,35.33,17a9.71,9.71,0,0,1,3,3.67A3.18,3.18,0,0,0,40.67,19a2.45,2.45,0,0,0,.14-.8A3.33,3.33,0,0,0,39.29,15.87Z"/></g></g></svg>