<svg xmlns="http://www.w3.org/2000/svg" viewBox="0 0 34.13 32"><defs><style>.\33 33b51bb-3f65-460d-bd0d-add13b380d25{fill:#fa0;}</style></defs><title>资源 1</title><g id="7c6057f1-b5fe-43c3-8853-81ce7f98bb15" data-name="图层 2"><g id="aa1e0e43-87b7-4d27-9b7b-545e1bfdbd88" data-name="Capa 1"><path class="333b51bb-3f65-460d-bd0d-add13b380d25" d="M3.2,14.93H1.07A1.07,1.07,0,0,0,0,16V30.93A1.07,1.07,0,0,0,1.07,32H3.2a1.07,1.07,0,0,0,1.07-1.07V16A1.07,1.07,0,0,0,3.2,14.93Z"/><path class="333b51bb-3f65-460d-bd0d-add13b380d25" d="M33.46,17.24A3.2,3.2,0,0,0,29,16.67L21.1,22.79a3.17,3.17,0,0,1-2,.68H11.73a5.34,5.34,0,0,0,5.34-5.34A1.06,1.06,0,0,0,16,17.07H6.4v12.8H20.6a5.29,5.29,0,0,0,3.27-1.13l9-7A3.2,3.2,0,0,0,33.46,17.24Z"/><path class="333b51bb-3f65-460d-bd0d-add13b380d25" d="M18.13,0a3.2,3.2,0,1,0,3.2,3.2A3.21,3.21,0,0,0,18.13,0Zm0,4.27A1.07,1.07,0,1,1,19.2,3.2,1.06,1.06,0,0,1,18.13,4.27Z"/><path class="333b51bb-3f65-460d-bd0d-add13b380d25" d="M24.53,8.53a3.2,3.2,0,1,0,3.2,3.2A3.21,3.21,0,0,0,24.53,8.53Zm0,4.27a1.07,1.07,0,1,1,1.07-1.07A1.07,1.07,0,0,1,24.53,12.8Z"/><path class="333b51bb-3f65-460d-bd0d-add13b380d25" d="M27.35.25a1.06,1.06,0,0,0-1.5.13L15.18,13.18a1.07,1.07,0,0,0,.14,1.51,1.09,1.09,0,0,0,.68.24,1.06,1.06,0,0,0,.82-.38L27.49,1.75A1.06,1.06,0,0,0,27.35.25Z"/></g></g></svg>