<svg xmlns="http://www.w3.org/2000/svg" viewBox="0 0 34.01 32"><defs><style>.c6d73f04-6449-4359-b0a0-9d308f457431{fill:#fa0;}</style></defs><title>资源 1</title><g id="6513fcf9-73bd-42a3-a69d-99b340bfcfaa" data-name="图层 2"><g id="0601a267-277e-400e-bf21-c057693d4155" data-name="图层 1"><path class="c6d73f04-6449-4359-b0a0-9d308f457431" d="M20.73,17.85c.46.35,1,.64,1.45,1h0a.78.78,0,0,0,1,0,7.86,7.86,0,0,1,5.19-2,8.07,8.07,0,0,1,4.51,1.33A.74.74,0,0,0,34,17.51a16.28,16.28,0,0,0-4.5-9.82A17.18,17.18,0,0,0,18.25,2.26V1.4a1.37,1.37,0,0,0-2.71-.29V2.32A16.43,16.43,0,0,0,7.74,5,17.22,17.22,0,0,0,2.08,11.1,16.29,16.29,0,0,0,0,17.39a.75.75,0,0,0,1.16.69A7.9,7.9,0,0,1,5.6,16.81a7.6,7.6,0,0,1,5.14,2,.78.78,0,0,0,1,0S15.88,14.27,20.73,17.85Z"/><path class="c6d73f04-6449-4359-b0a0-9d308f457431" d="M3.87,20.8a2.5,2.5,0,0,0,.41.23,1.06,1.06,0,0,0,.75.06l.34-.18c.12-.05.18-.17.29-.23s.12-.05.23,0l.18.18a.59.59,0,0,0,.4.23A1.07,1.07,0,0,0,6.93,21c.12-.06.23-.17.35-.23A3.58,3.58,0,0,1,8,20.22c.11-.06.17-.17.29-.23h.06c0,.06-.06.06-.06.12s-.18.28-.29.46a2.3,2.3,0,0,0-.41,1v.46a2.85,2.85,0,0,1-1,.46,1.83,1.83,0,0,1-.8.06,3.39,3.39,0,0,1-1.33-.41v-.05a1.53,1.53,0,0,0-.23-.7,4.31,4.31,0,0,0-.41-.63Z"/><path class="c6d73f04-6449-4359-b0a0-9d308f457431" d="M8.84,22.42H9a2,2,0,0,1,1.22.63c.05.06.11.17.05.23s-.11.12-.17.17H9.93a8.05,8.05,0,0,0-1.09-.8,1.8,1.8,0,0,0-.52-.23.06.06,0,0,1-.06-.06v-.23a3.23,3.23,0,0,1,.81-.29,1.89,1.89,0,0,1,1,.11c.06.06.17.06.23.12a.22.22,0,0,1,.12.29c0,.11-.12.17-.23.17s-.12,0-.12-.06c-.17,0-.29-.11-.46-.17a1.17,1.17,0,0,0-.75.12Z"/><path class="c6d73f04-6449-4359-b0a0-9d308f457431" d="M8.26,22.76a5.07,5.07,0,0,1-2.08.46,7.56,7.56,0,0,1-2.37-.4c-1.5,1.27-2.54,3.87-2.54,6.81A10.78,10.78,0,0,0,1.33,31c.12.29.41,1,1.1,1H9.59s1-.06,1.21-.87c0-.11,0-.23.06-.28v-.12a6.05,6.05,0,0,0,.06-1C10.92,26.63,9.82,24,8.26,22.76ZM7.8,29.52a1.47,1.47,0,0,1-.46.52,2.94,2.94,0,0,1-.7.29s-.17.05-.23.05v.41H5.84v-.35A4.25,4.25,0,0,1,5,30.38a2.64,2.64,0,0,1-.41-.11c-.23-.12-.34-.23-.34-.41v-.57a.21.21,0,0,1,.34-.18l.41.18a2.06,2.06,0,0,0,.81.11h.06a.68.68,0,0,0,.34-.06c.12,0,.17-.05.23-.05a.06.06,0,0,0,.06-.06l.17-.17c.06-.06.06-.12.06-.24a.45.45,0,0,0-.11-.28l-.18-.18a.06.06,0,0,1-.06-.06,2.27,2.27,0,0,1-.4-.23c-.06,0-.11-.05-.17-.05a1,1,0,0,0-.29-.12,3.07,3.07,0,0,1-1-.63,1.34,1.34,0,0,1-.35-.93,1.66,1.66,0,0,1,.17-.75,1.4,1.4,0,0,1,.47-.52,2,2,0,0,1,.69-.29,2.35,2.35,0,0,1,.29-.06v-.4h.57v.35a3.64,3.64,0,0,1,.76,0,2.13,2.13,0,0,1,.28.06.43.43,0,0,1,.29.41v.46c0,.17-.17.29-.29.17a.58.58,0,0,1-.28-.06.87.87,0,0,0-.35-.05H6.35a.8.8,0,0,0-.34.05.29.29,0,0,0-.23.12H5.72l-.17.17a.35.35,0,0,0-.06.23c0,.12,0,.18.06.23l.23.24h0a2.66,2.66,0,0,0,.34.17c.06.06.18.06.29.11s.12.06.18.06c.23.12.4.18.57.29a2.62,2.62,0,0,1,.46.35,1.1,1.1,0,0,1,.29.46,1.66,1.66,0,0,1,.12.58A1.51,1.51,0,0,1,7.8,29.52Z"/><path class="c6d73f04-6449-4359-b0a0-9d308f457431" d="M14.78,20.8a3,3,0,0,0,.41.23,1.06,1.06,0,0,0,.75.06l.35-.18c.11-.05.17-.17.28-.23s.12-.05.24,0l.17.18a.59.59,0,0,0,.4.23,1,1,0,0,0,.46-.06c.12-.06.24-.17.35-.23a3.58,3.58,0,0,1,.75-.58c.12-.06.17-.17.29-.23h.06c0,.06-.06.06-.06.12s-.17.28-.29.46a2.29,2.29,0,0,0-.4,1v.46a3,3,0,0,1-1,.46,1.86,1.86,0,0,1-.81.06,3.44,3.44,0,0,1-1.33-.41v-.05a1.53,1.53,0,0,0-.23-.7,1.33,1.33,0,0,0-.41-.63Z"/><path class="c6d73f04-6449-4359-b0a0-9d308f457431" d="M19.75,22.42h.12a2,2,0,0,1,1.21.63c.06.06.11.17.06.23s-.12.12-.18.17h-.11a8.84,8.84,0,0,0-1.1-.8,1.69,1.69,0,0,0-.52-.23.06.06,0,0,1-.06-.06v-.23a3.23,3.23,0,0,1,.81-.29A1.88,1.88,0,0,1,21,22c.06.06.18.06.23.12a.21.21,0,0,1,.12.29c0,.11-.12.17-.23.17s-.12,0-.12-.06c-.17,0-.29-.11-.46-.17a1.22,1.22,0,0,0-.75.12c.06-.06,0-.06,0,0Z"/><path class="c6d73f04-6449-4359-b0a0-9d308f457431" d="M19.23,22.76a5.07,5.07,0,0,1-2.08.46,7.56,7.56,0,0,1-2.37-.4c-1.5,1.27-2.54,3.87-2.54,6.81A10.78,10.78,0,0,0,12.3,31c.12.29.41,1,1.1,1h7.16s1-.06,1.21-.87c0-.11,0-.23.06-.28v-.12a6.05,6.05,0,0,0,.06-1C21.89,26.63,20.79,24,19.23,22.76Zm-.46,6.76a1.47,1.47,0,0,1-.46.52,2.94,2.94,0,0,1-.7.29c-.05,0-.17.05-.23.05v.41h-.57v-.35a4.25,4.25,0,0,1-.87-.06,2.23,2.23,0,0,1-.4-.11.43.43,0,0,1-.29-.41v-.57a.21.21,0,0,1,.34-.18l.41.18a2.06,2.06,0,0,0,.81.11h.05a.72.72,0,0,0,.35-.06c.12,0,.17-.05.23-.05a.06.06,0,0,0,.06-.06l.17-.17c.06-.06.06-.12.06-.24a.41.41,0,0,0-.12-.28l-.17-.18a.06.06,0,0,1-.06-.06,2.27,2.27,0,0,1-.4-.23c-.06,0-.12-.05-.17-.05a1.1,1.1,0,0,0-.29-.12,3.07,3.07,0,0,1-1-.63,1.3,1.3,0,0,1-.35-.93,1.66,1.66,0,0,1,.17-.75,1.47,1.47,0,0,1,.46-.52,2.17,2.17,0,0,1,.7-.29,2,2,0,0,1,.29-.06v-.4h.57v.35a3.49,3.49,0,0,1,.75,0,2.35,2.35,0,0,1,.29.06.43.43,0,0,1,.29.41v.46c0,.17-.17.29-.29.17a.68.68,0,0,1-.34-.06.87.87,0,0,0-.35-.05h-.4a.83.83,0,0,0-.35.05.29.29,0,0,0-.23.12h-.06l-.17.17c-.06,0-.06.12-.06.18s0,.17.06.23l.23.23h0a1.78,1.78,0,0,0,.34.17c.06.06.18.06.29.12s.12.05.18.05c.23.12.4.18.57.29a3.19,3.19,0,0,1,.47.35,1.27,1.27,0,0,1,.28.46,1.66,1.66,0,0,1,.12.58A2.47,2.47,0,0,1,18.77,29.52Z"/><path class="c6d73f04-6449-4359-b0a0-9d308f457431" d="M25.75,20.8a3,3,0,0,0,.41.23,1.06,1.06,0,0,0,.75.06l.35-.18c.11-.05.17-.17.28-.23s.12-.05.24,0l.17.18a.59.59,0,0,0,.4.23,1.12,1.12,0,0,0,.47-.06c.11-.06.23-.17.34-.23a3.58,3.58,0,0,1,.75-.58c.12-.06.18-.17.29-.23h.06c0,.06-.06.06-.06.12s-.17.28-.29.46a2.29,2.29,0,0,0-.4,1v.46a3,3,0,0,1-1,.46,1.86,1.86,0,0,1-.81.06,3.44,3.44,0,0,1-1.33-.41v-.05a1.53,1.53,0,0,0-.23-.7,3.61,3.61,0,0,0-.41-.63Z"/><path class="c6d73f04-6449-4359-b0a0-9d308f457431" d="M30.72,22.42h.12a2,2,0,0,1,1.21.63c.06.06.11.17.06.23s-.12.12-.18.17h-.11a8.84,8.84,0,0,0-1.1-.8,1.69,1.69,0,0,0-.52-.23.06.06,0,0,1-.06-.06v-.23a3.23,3.23,0,0,1,.81-.29,1.88,1.88,0,0,1,1,.11c.06.06.18.06.23.12a.21.21,0,0,1,.12.29c0,.11-.12.17-.23.17s-.12,0-.12-.06c-.17,0-.29-.11-.46-.17a1.17,1.17,0,0,0-.75.12Z"/><path class="c6d73f04-6449-4359-b0a0-9d308f457431" d="M30.14,22.76a5,5,0,0,1-2.08.46,7.42,7.42,0,0,1-2.36-.4c-1.5,1.27-2.54,3.87-2.54,6.81A12.92,12.92,0,0,0,23.21,31c.12.29.41,1,1.1,1h7.16s1-.06,1.21-.87c0-.11,0-.23.06-.28v-.12a6.05,6.05,0,0,0,.06-1C32.8,26.63,31.76,24,30.14,22.76Zm-.4,6.76a1.47,1.47,0,0,1-.46.52,2.78,2.78,0,0,1-.7.29s-.17.05-.23.05v.41h-.57v-.35a4.25,4.25,0,0,1-.87-.06,2.23,2.23,0,0,1-.4-.11.43.43,0,0,1-.29-.41v-.57a.21.21,0,0,1,.34-.18l.41.18a2.06,2.06,0,0,0,.81.11h0a.72.72,0,0,0,.35-.06c.12,0,.17-.05.23-.05a.06.06,0,0,0,.06-.06l.17-.17c.06-.06.06-.12.06-.24a.41.41,0,0,0-.12-.28l-.17-.18a.06.06,0,0,1-.06-.06,2.27,2.27,0,0,1-.4-.23c-.06,0-.12-.05-.17-.05a1.1,1.1,0,0,0-.29-.12,3.07,3.07,0,0,1-1-.63,1.3,1.3,0,0,1-.35-.93,1.66,1.66,0,0,1,.17-.75,1.47,1.47,0,0,1,.46-.52,2.17,2.17,0,0,1,.7-.29,2,2,0,0,1,.29-.06v-.4h.57v.35a3.49,3.49,0,0,1,.75,0,2.35,2.35,0,0,1,.29.06.43.43,0,0,1,.29.41v.46c0,.17-.17.29-.29.17a.76.76,0,0,0-.34-.11.72.72,0,0,0-.35-.06h-.4a.7.7,0,0,0-.35.06.28.28,0,0,0-.23.11h-.06l-.17.18c-.06.05-.06.17-.06.23s0,.17.06.23l.23.23h0a1.78,1.78,0,0,0,.34.17c.06.06.18.06.29.12s.12.05.18.05c.23.12.4.18.57.29a3.19,3.19,0,0,1,.47.35,1.27,1.27,0,0,1,.28.46,1.66,1.66,0,0,1,.12.58A2.47,2.47,0,0,1,29.74,29.52Z"/></g></g></svg>