<svg xmlns="http://www.w3.org/2000/svg" viewBox="0 0 34.38 32"><defs><style>.\32 186a512-82c7-4dbd-adb0-c05cf238a78c{fill:#fa0;}</style></defs><title>资源 1</title><g id="69430c92-9a20-40f4-b671-394538f812e8" data-name="图层 2"><g id="6764a1da-6776-4306-a72c-546d7a9297ae" data-name="图层 1"><path class="2186a512-82c7-4dbd-adb0-c05cf238a78c" d="M17.08,14.27A7.14,7.14,0,1,0,9.94,7.14,7.14,7.14,0,0,0,17.08,14.27Z"/><path class="2186a512-82c7-4dbd-adb0-c05cf238a78c" d="M4.92,20a1.23,1.23,0,0,0-1.29-1.13A1.23,1.23,0,0,0,2.34,20v2.5h.8A16.26,16.26,0,0,1,4.92,20Z"/><path class="2186a512-82c7-4dbd-adb0-c05cf238a78c" d="M32,22.86V20.37a1.23,1.23,0,0,0-1.29-1.16,1.28,1.28,0,0,0-1.23.82,16.15,16.15,0,0,1,1.91,2.83Z"/><path class="2186a512-82c7-4dbd-adb0-c05cf238a78c" d="M25.77,29.73a2,2,0,0,1,.21-.89h-3.4a5.7,5.7,0,0,0-.4-.91l3.61-3.2a2,2,0,0,1,2-1.87h2.36c-.21-.36-.44-.71-.68-1.06a14.55,14.55,0,0,0-1.09-1.37l-.05-.07-.06-.05a15,15,0,0,0-22.16,0l-.06.06,0,.06a14.13,14.13,0,0,0-1.08,1.37c-.16.23-.31.46-.46.7H6.59a2,2,0,0,1,2,2c0,.07,0,.15,0,.22l3.46,3.08a5.34,5.34,0,0,0-.47,1H8.54a2.18,2.18,0,0,1,.07.52,2,2,0,0,1-2,2H2.51A1.59,1.59,0,0,0,3.76,32H30.62a1.57,1.57,0,0,0,.85-.25H27.79A2,2,0,0,1,25.77,29.73Zm-8.69-4.81a5.7,5.7,0,0,0-2.73.69L9.56,21.36a11.81,11.81,0,0,1,15.25,0L20,25.68A5.83,5.83,0,0,0,17.08,24.92Z"/><path class="2186a512-82c7-4dbd-adb0-c05cf238a78c" d="M7.67,29.36a1.11,1.11,0,0,0-.13-.52,1.08,1.08,0,0,0-1-.56H3.35V28H6.59a1,1,0,0,0,.73-.29,1.06,1.06,0,0,0,.35-.79,1.07,1.07,0,0,0-.31-.76,1.09,1.09,0,0,0-.77-.33H3.35v-.24H6.59a1.08,1.08,0,0,0,1.08-1.08,1.1,1.1,0,0,0-.28-.73,1.06,1.06,0,0,0-.8-.35h-5C-.07,23.43,0,26.92,0,26.92s0,3.52,1.63,3.52h5A1.08,1.08,0,0,0,7.67,29.36Z"/><path class="2186a512-82c7-4dbd-adb0-c05cf238a78c" d="M32.75,23.8l-.17,0-.11,0H27.79a1.1,1.1,0,0,0-.64.22,1.07,1.07,0,0,0-.44.87A1.08,1.08,0,0,0,27.79,26H31v.24H27.79a1.1,1.1,0,0,0-.66.23,1.09,1.09,0,0,0-.42.85,1.16,1.16,0,0,0,.08.42,1.09,1.09,0,0,0,1,.66H31v.28H27.79a1,1,0,0,0-.6.19,1.06,1.06,0,0,0-.48.89,1.08,1.08,0,0,0,1.08,1.08h5c1.64,0,1.63-3.52,1.63-3.52S34.45,23.8,32.75,23.8Z"/></g></g></svg>