<svg xmlns="http://www.w3.org/2000/svg" viewBox="0 0 32 32"><defs><style>.\33 569142b-1352-4d1a-b4e9-4e0e83044e88{fill:#fa0;}</style></defs><title>资源 1</title><g id="1bf3d765-8eb7-4749-bf70-60548f7b73b3" data-name="图层 2"><g id="d72d011f-ad7c-433f-a3b8-3170766341d4" data-name="Capa 1"><path class="3569142b-1352-4d1a-b4e9-4e0e83044e88" d="M24.34,5.46a2.78,2.78,0,0,0-.82-2L20.87.82a2.89,2.89,0,0,0-2-.82H18.7V5.63h5.64V5.46Z"/><path class="3569142b-1352-4d1a-b4e9-4e0e83044e88" d="M17.12,19.35a3.73,3.73,0,0,1,.9-1.47l6.35-6.32V7.5H17.78a.91.91,0,0,1-.9-.94V0H2.81A2.81,2.81,0,0,0,0,2.81V29.19A2.81,2.81,0,0,0,2.81,32H21.53a2.84,2.84,0,0,0,2.84-2.81v-7l-1,1a3.74,3.74,0,0,1-1.46.89l-3,1-.45,0A2.33,2.33,0,0,1,16.23,22ZM4.69,16.88H14a.94.94,0,1,1,0,1.87H4.69a.94.94,0,1,1,0-1.87Zm-.94-2.82a.93.93,0,0,1,.94-.93H14A.94.94,0,1,1,14,15H4.69A.94.94,0,0,1,3.75,14.06Zm0,7.5a.93.93,0,0,1,.94-.93H14a.94.94,0,1,1,0,1.87H4.69A.94.94,0,0,1,3.75,21.56Zm14,4.69a.94.94,0,1,1,0,1.88H12.16a.94.94,0,0,1,0-1.88Zm-13.09-15a.94.94,0,1,1,0-1.87H17.78a.94.94,0,1,1,0,1.87Z"/><path class="3569142b-1352-4d1a-b4e9-4e0e83044e88" d="M18.82,20.18,18,22.62a.48.48,0,0,0,.6.6L21,22.4Z"/><path class="3569142b-1352-4d1a-b4e9-4e0e83044e88" d="M26.1,12.46l-6.17,6.17,2.66,2.66,6.17-6.17Z"/><path class="3569142b-1352-4d1a-b4e9-4e0e83044e88" d="M31.45,9.77a2,2,0,0,0-2.66,0l-1.36,1.36,2.66,2.66,1.36-1.36A1.89,1.89,0,0,0,31.45,9.77Z"/><path class="3569142b-1352-4d1a-b4e9-4e0e83044e88" d="M31.45,12.43Z"/><path class="3569142b-1352-4d1a-b4e9-4e0e83044e88" d="M31.46,12.43h0Z"/><path class="3569142b-1352-4d1a-b4e9-4e0e83044e88" d="M31.46,12.42Z"/></g></g></svg>