<svg xmlns="http://www.w3.org/2000/svg" viewBox="0 0 36.31 32"><defs><style>.b2f2ea09-7ff5-4530-a17a-23381d3a4bbe{fill:#fa0;}</style></defs><title>资源 1</title><g id="68f045ab-7312-422c-a4d6-aae1f66659fa" data-name="图层 2"><g id="319abfda-2d10-47a3-a069-80960812fcd1" data-name="图层 1"><path class="b2f2ea09-7ff5-4530-a17a-23381d3a4bbe" d="M35,17.65h-.47a2.15,2.15,0,0,0-1.45.64,26.59,26.59,0,0,0-1.88-4,4.32,4.32,0,0,0-3-1.74,25.19,25.19,0,0,0-4.34-.28h0a25.25,25.25,0,0,0-4.34.28,4.34,4.34,0,0,0-3,1.74,26.59,26.59,0,0,0-1.88,4,2.13,2.13,0,0,0-1.44-.64h-.48a1.28,1.28,0,0,0-1.26,1.26v.92a1.34,1.34,0,0,0,1.31,1.3h.63l-.19.26a5.43,5.43,0,0,0-.89,3.13V30.7A1.29,1.29,0,0,0,13.67,32h1.67a1.29,1.29,0,0,0,1.29-1.3v-1H31.19v1A1.29,1.29,0,0,0,32.48,32h1.68a1.29,1.29,0,0,0,1.29-1.29V24.52a5.41,5.41,0,0,0-.89-3.13l-.19-.27H35a1.33,1.33,0,0,0,1.31-1.29v-.92A1.27,1.27,0,0,0,35,17.65Zm-16,7.53H16.68a1,1,0,0,1-1-1h0v-.61a1,1,0,0,1,1.25-1l2.37.62a1,1,0,0,1,.7,1.25,1,1,0,0,1-.95.73Zm13.08-1a1,1,0,0,1-1,1H28.76a1,1,0,0,1-1-1,1,1,0,0,1,.74-1l2.37-.62a1,1,0,0,1,1.22.73.69.69,0,0,1,0,.25ZM5.91,0A3.29,3.29,0,1,1,2.63,3.28,3.28,3.28,0,0,1,5.91,0ZM18.07,10.31l-7.73.51a.14.14,0,0,0-.14.13L8.68,25.21,8,31A1.07,1.07,0,0,1,7,32H4.81a1.08,1.08,0,0,1-1.09-1L2.38,18.56A2.38,2.38,0,0,1,.84,16.61L0,10.53A2.78,2.78,0,0,1,2.46,7.45H3.82a.13.13,0,0,1,.11,0l1.7,2.12a.34.34,0,0,0,.47.06l.05-.06,1.7-2.13a.15.15,0,0,1,.11,0l1.44,0L18.13,8a1.15,1.15,0,0,1,1.06,1.22v0A1.2,1.2,0,0,1,18.07,10.31Z"/></g></g></svg>