<svg xmlns="http://www.w3.org/2000/svg" viewBox="0 0 33.24 32"><defs><style>.\32 050eaf1-e379-4e29-9380-797c641a2920{fill:#fa0;}</style></defs><title>资源 1</title><g id="ace6c315-c2c3-4b37-89e0-4802bdf1cfb5" data-name="图层 2"><g id="4f0ab1d2-ba51-4bdc-be66-393975b1139b" data-name="图层 1"><path class="2050eaf1-e379-4e29-9380-797c641a2920" d="M19.12,0a9.28,9.28,0,0,0-5.79,16.53l-1,4.64,4.52-2.89A9.28,9.28,0,1,0,19.12,0Zm5.64,11.2a1.37,1.37,0,1,1-2.74,0H15.61a1.38,1.38,0,1,1-2.75,0H11.6c-1,0-.32-2.92,1.6-2.92H16c.78-1,1.71-1.94,2.38-1.94h5L24,8.28h3.07l-.46,2.92Z"/><path class="2050eaf1-e379-4e29-9380-797c641a2920" d="M33.23,16.36c.1-.72-1.24-1.28-1.24-1.28l-3.5-1.46a11,11,0,0,1-1.12,1.82l3.91,1.65L13.83,28.24,3.18,21.51,12.34,17,12,16.66,1.55,21.85C.43,22.4.06,23,0,23.43H0a1,1,0,0,0,0,.25V24.8a1.39,1.39,0,0,0,.44,1.09s5.25,3.63,7.87,5.37a4.38,4.38,0,0,0,5-.11s17.58-11.66,19.3-12.7a1.34,1.34,0,0,0,.59-.57h.05V16.36ZM7.52,26.65a2.81,2.81,0,0,1-2.68,0C4.69,26.57,3.7,25.82,5,25a2.57,2.57,0,0,1,2.65,0A.89.89,0,0,1,7.52,26.65Z"/></g></g></svg>