<svg xmlns="http://www.w3.org/2000/svg" viewBox="0 0 50 54.78"><defs><style>.cls-1{fill:#8ba1af;}.cls-2{fill:#052e6c;}.cls-3{fill:#fa0;}</style></defs><title>资源 2</title><g id="图层_2" data-name="图层 2"><g id="图层_1-2" data-name="图层 1"><path class="cls-1" d="M15.35,44.43A16.56,16.56,0,0,0,0,54.78H30.7A16.56,16.56,0,0,0,15.35,44.43Z"/><circle class="cls-2" cx="15.35" cy="33.98" r="8.7"/><path class="cls-3" d="M50,12.19C50,5.46,43.13,0,34.65,0S19.3,5.46,19.3,12.19c0,6,5.48,11,12.7,12h0a7.59,7.59,0,0,1-2.1,6.59,7.53,7.53,0,0,0,7.44-6.59h0C44.51,23.2,50,18.21,50,12.19Zm-21.81.66a1.28,1.28,0,1,1,1.28-1.28A1.28,1.28,0,0,1,28.19,12.85Zm6.46,0a1.28,1.28,0,1,1,1.28-1.28A1.28,1.28,0,0,1,34.65,12.85Zm6.46,0a1.28,1.28,0,1,1,1.28-1.28A1.28,1.28,0,0,1,41.11,12.85Z"/></g></g></svg>