<svg id="图层_1" data-name="图层 1" xmlns="http://www.w3.org/2000/svg" viewBox="0 0 44.14 40.35"><defs><style>.cls-1{fill:#f5a518;stroke:#f5a518;stroke-miterlimit:10;stroke-width:0.5px;}</style></defs><title>jianjiec</title><path class="cls-1" d="M297.64,255.93h16.23V216.08H297.64Zm13.83-5.59h-4.34V246h4.34Zm-8.07-6.49v-4.34h4.34v4.34Zm8.07-6.49h-4.34V233h4.34Zm-8.07-6.49v-4.34h4.34v4.34ZM307.13,220h4.34v4.34h-4.34Zm-7.47,0H304v4.34h-4.33Zm0,13H304v4.33h-4.33Zm0,13H304v4.33h-4.33Zm-14,9.93h9.73V228.68h-9.73Zm2.7-25.11h4.33v4.33h-4.33Zm0,7.71h4.33v4.34h-4.33Zm0,7.41h4.33v4.34h-4.33Zm39-13.41v-5.18H325v-5.05h-1.69v-4.7h-1.42v4.7h-1.69v5.05h-2.36v5.18h-1.92v23.41h13.38V232.52ZM322.44,253H318.1v-4.33h4.33Zm0-13.29H318.1v-4.34h4.33Zm5.09,6.59h-4.33v-4.33h4.33Z" transform="translate(-285.37 -215.83)"/></svg>