<svg id="图层_1" data-name="图层 1" xmlns="http://www.w3.org/2000/svg" viewBox="0 0 44.64 40.85"><defs><style>.cls-1{fill:none;stroke:#595757;stroke-miterlimit:10;}</style></defs><title>jianjie</title><path class="cls-1" d="M170.69,252.75h16.23V212.91H170.69Zm13.83-5.59h-4.34v-4.34h4.34Zm-8.07-6.49v-4.34h4.34v4.34Zm8.07-6.49h-4.34v-4.33h4.34Zm-8.07-6.49v-4.34h4.34v4.34Zm3.73-10.83h4.34v4.34h-4.34Zm-7.47,0h4.33v4.34h-4.33Zm0,13h4.33v4.33h-4.33Zm0,13h4.33v4.34h-4.33Zm-14,9.93h9.73V225.5h-9.73Zm2.7-25.11h4.33V232h-4.33Zm0,7.71h4.33v4.34h-4.33Zm0,7.41h4.33v4.34h-4.33Zm39-13.41v-5.18H198v-5.05h-1.69v-4.7h-1.42v4.7h-1.69v5.05h-2.36v5.18h-1.92v23.41h13.38V229.34Zm-4.91,20.43h-4.33v-4.34h4.33Zm0-13.29h-4.33v-4.34h4.33Zm5.09,6.59h-4.33v-4.33h4.33Z" transform="translate(-158.18 -212.41)"/></svg>