<svg xmlns="http://www.w3.org/2000/svg" viewBox="0 0 36 36"><defs><style>.cls-1{fill:#fff;}</style></defs><title></title><g id="图层_2" data-name="图层 2"><g id="图层_1-2" data-name="图层 1"><path class="cls-1" d="M4.35,7,6,8.24a15.48,15.48,0,0,1,24.18.15L32,7a1,1,0,0,1,.17-.1A18,18,0,0,0,4,6.77,1.08,1.08,0,0,1,4.35,7Z"/><path class="cls-1" d="M33.74,9.28l-2,1.59a15.5,15.5,0,1,1-27.52,0l-2-1.58A17.82,17.82,0,0,0,0,18,18,18,0,1,0,33.74,9.28Z"/><path class="cls-1" d="M3.67,7.78s0,0,0,0l12.1,9.48A3.58,3.58,0,0,0,18,18a3.65,3.65,0,0,0,2.21-.76L32.61,7.84h.07l.52.55-13,10.37-.39.31v9.87l-.49.37a2.13,2.13,0,0,1-2.62,0L16,28.77V18.91l-.4-.32L2.89,8.45l.74-.65s0,0,0,0m0-1A1.08,1.08,0,0,0,3,7L1.83,8a.64.64,0,0,0,0,1L15,19.41v9.87l1.1.85a3.17,3.17,0,0,0,3.9,0l.89-.69V19.57L34.2,8.92A.65.65,0,0,0,34.27,8l-.83-.87A1.12,1.12,0,0,0,32,7L19.56,16.43a2.52,2.52,0,0,1-3.13,0L4.35,7a1.09,1.09,0,0,0-.68-.24Z"/><path class="cls-1" d="M15.53,19.11,1.61,8.49,5.74,21.55a.69.69,0,0,0,.2.3l9,7.43Z"/><path class="cls-1" d="M20,19.5l.89,9.94,9.22-7.59a.69.69,0,0,0,.2-.3L34.44,8.49Z"/></g></g></svg>